<svg role="img" viewBox="0 0 24 24" xmlns="http://www.w3.org/2000/svg" id="Pythonanywhere--Streamline-Simple-Icons" height="24" width="24">
  <desc>
    Pythonanywhere Streamline Icon: https://streamlinehq.com
  </desc>
  <title>PythonAnywhere</title>
  <path d="M11.435 20.69c-0.09 -0.11 -0.219 -0.182 -0.328 -0.255 -0.092 -0.055 -0.128 -0.11 -0.11 -0.238 0.183 -1.077 0.347 -2.154 0.511 -3.25 0.11 -0.73 0.22 -1.46 0.347 -2.227 0.165 0.11 0.329 0.22 0.475 0.329 0.036 0.036 0.018 0.091 0.018 0.128 -0.036 0.255 -0.073 0.53 -0.128 0.785l-0.273 1.77 -0.274 1.753c-0.019 0.146 -0.037 0.31 -0.073 0.457 0.073 0.018 0.11 -0.037 0.164 -0.055 1.387 -0.73 2.775 -1.442 4.163 -2.173l0.11 -0.054c0.036 -0.019 0.072 -0.037 0.109 0 0.146 0.09 0.292 0.2 0.456 0.31 -0.073 0.036 -0.11 0.073 -0.164 0.091 -1.607 0.84 -3.195 1.68 -4.802 2.52 -0.055 0.018 -0.11 0.036 -0.128 0.091l-0.073 0.018zm-4.874 -9.858c-0.037 0.292 -0.091 0.547 -0.128 0.803 -0.128 0.84 -0.274 1.661 -0.402 2.501 -0.073 0.493 -0.164 0.986 -0.237 1.479 -0.018 0.091 -0.055 0.128 -0.128 0.146 -0.146 0.036 -0.31 0.091 -0.456 0.146 -0.018 -0.037 0 -0.073 0 -0.11 0.146 -0.912 0.292 -1.807 0.438 -2.72 0.146 -0.876 0.274 -1.77 0.42 -2.647 0.018 -0.073 0.036 -0.128 0.128 -0.146 0.127 -0.037 0.237 -0.073 0.365 -0.11 0.073 -0.036 0.128 -0.018 0.2 0.037l0.932 0.93c0.986 0.987 1.99 1.973 2.976 2.94 0.018 0.019 0.036 0.055 0.073 0.073 -0.183 0.073 -0.366 0.11 -0.53 0.183 -0.055 0.018 -0.091 -0.037 -0.11 -0.055 -0.237 -0.237 -0.474 -0.475 -0.73 -0.712a375.76 375.76 0 0 1 -2.702 -2.684c-0.036 0 -0.054 -0.018 -0.11 -0.054m4.748 2.83a8.286 8.286 0 0 1 -0.402 -0.384c-0.037 -0.037 -0.018 -0.091 0 -0.128 0.11 -0.328 0.219 -0.657 0.347 -0.986l1.205 -3.45a0.338 0.338 0 0 0 0.036 -0.128c-0.073 -0.018 -0.128 0.018 -0.182 0.036 -1.497 0.475 -2.976 0.932 -4.473 1.406 -0.238 0.073 -0.165 0.092 -0.329 -0.073l-0.274 -0.274c0.037 -0.054 0.11 -0.054 0.165 -0.073 1.734 -0.547 3.468 -1.095 5.185 -1.643 0.127 -0.036 0.2 -0.018 0.292 0.073 0.054 0.073 0.146 0.146 0.219 0.22 0.073 0.054 0.073 0.127 0.054 0.2 -0.2 0.548 -0.383 1.096 -0.584 1.643 -0.401 1.15 -0.803 2.3 -1.205 3.433a0.318 0.318 0 0 1 -0.054 0.127m-0.31 1.15a5.268 5.268 0 0 0 -0.074 0.53c0 0.073 -0.055 0.073 -0.11 0.091 -0.401 0.128 -0.784 0.256 -1.168 0.365 -1.132 0.366 -2.282 0.712 -3.414 1.078 -0.036 0.018 -0.091 0.036 -0.146 0.054a0.284 0.284 0 0 0 0.146 0.11c1.278 0.876 2.556 1.77 3.834 2.647 0.11 0.073 0.183 0.146 0.128 0.292 -0.037 0.128 -0.037 0.256 -0.073 0.384 -0.055 0 -0.091 -0.037 -0.128 -0.055C8.496 19.284 7 18.244 5.502 17.22c-0.091 -0.073 -0.128 -0.127 -0.11 -0.255 0.019 -0.11 0.055 -0.201 0.055 -0.31 0 -0.092 0.055 -0.128 0.128 -0.147 1.77 -0.566 3.56 -1.113 5.33 -1.68 0.02 0 0.056 0 0.092 -0.017M6.944 3.62c-0.018 0.183 -0.055 0.365 -0.073 0.53 0 0.073 -0.073 0.073 -0.128 0.073 -0.328 0.11 -0.675 0.2 -1.004 0.31 -1.205 0.365 -2.391 0.73 -3.596 1.095 -0.037 0.019 -0.092 0.019 -0.128 0.073 0.055 0.037 0.091 0.073 0.146 0.11 1.278 0.895 2.538 1.807 3.816 2.702 0.09 0.073 0.127 0.128 0.11 0.256a3.37 3.37 0 0 0 -0.074 0.42c-0.055 -0.019 -0.091 -0.055 -0.146 -0.074L1.431 5.994c-0.11 -0.074 -0.146 -0.147 -0.11 -0.256 0.018 -0.11 0.037 -0.2 0.055 -0.31 0 -0.073 0.036 -0.11 0.128 -0.147l1.26 -0.383c1.35 -0.402 2.683 -0.821 4.034 -1.223 0.037 -0.037 0.091 -0.037 0.146 -0.055m5.477 3.725c-0.146 0.054 -0.292 0.09 -0.438 0.146 -0.091 0.036 -0.164 0.018 -0.237 -0.055 -0.493 -0.511 -1.004 -1.004 -1.516 -1.516a183.922 183.922 0 0 0 -1.825 -1.807c-0.037 -0.036 -0.055 -0.091 -0.128 -0.11a6.081 6.081 0 0 0 -0.091 0.566c-0.146 0.859 -0.274 1.717 -0.42 2.556 -0.092 0.548 -0.183 1.078 -0.256 1.625 -0.018 0.092 -0.036 0.128 -0.128 0.146 -0.146 0.037 -0.31 0.092 -0.456 0.146 -0.018 -0.11 0.018 -0.2 0.036 -0.273l0.548 -3.396c0.091 -0.603 0.201 -1.205 0.292 -1.808 0.019 -0.073 0.037 -0.11 0.11 -0.127 0.128 -0.037 0.237 -0.073 0.365 -0.11 0.091 -0.037 0.146 -0.018 0.219 0.055l1.46 1.46c0.786 0.785 1.589 1.57 2.374 2.355 0.018 0.037 0.073 0.073 0.091 0.147m0.672 7.755a3.728 3.728 0 0 1 -0.13 -0.76c-0.115 -0.959 -0.014 -1.885 0.36 -2.774 0.572 -1.388 1.56 -2.417 2.904 -3.073a8.12 8.12 0 0 1 2.116 -0.676c0.05 0.059 0.027 0.13 0.023 0.185l0.032 0.332c0.013 0.074 -0.026 0.108 -0.1 0.12 -0.484 0.113 -0.97 0.262 -1.423 0.469 -1.228 0.536 -2.164 1.367 -2.76 2.57a4.954 4.954 0 0 0 -0.526 2.544c0.02 0.24 0.04 0.478 0.078 0.719 0.013 0.074 0.009 0.129 -0.085 0.159a3.57 3.57 0 0 0 -0.489 0.185m2.53 1.77c0.013 -0.183 0.006 -0.348 0.02 -0.53 0.004 -0.073 0.025 -0.108 0.117 -0.12 0.481 -0.076 0.947 -0.19 1.382 -0.397 1.606 -0.712 2.66 -1.92 3.09 -3.628 0.177 -0.683 0.207 -1.376 0.146 -2.076 0.002 -0.036 -0.012 -0.092 -0.01 -0.129 0.006 -0.072 -0.06 -0.169 -0.002 -0.22 0.04 -0.052 0.131 -0.045 0.205 -0.058 0.13 -0.028 0.242 -0.057 0.373 -0.102 0.057 0.242 0.075 0.5 0.077 0.737a7.32 7.32 0 0 1 -0.054 1.552 5.652 5.652 0 0 1 -1.478 3.081c-0.87 0.928 -1.953 1.492 -3.179 1.754a2.843 2.843 0 0 1 -0.687 0.135m5.343 -10.442c0.054 0.004 0.075 -0.032 0.113 -0.047a54.441 54.441 0 0 1 2.265 -1.251c0.039 -0.034 0.095 -0.048 0.147 -0.008 0.157 0.102 0.333 0.206 0.509 0.31a0.555 0.555 0 0 1 -0.134 0.082c-0.95 0.501 -1.917 0.983 -2.867 1.483a0.865 0.865 0 0 0 -0.195 0.17c-0.349 0.543 -0.718 1.103 -1.067 1.646 -0.062 0.105 -0.062 0.105 -0.167 0.043 -0.106 -0.063 -0.193 -0.124 -0.299 -0.186 -0.105 -0.062 -0.105 -0.062 -0.044 -0.15l0.677 -1.05c0.143 -0.21 0.268 -0.42 0.41 -0.63a0.368 0.368 0 0 0 0.07 -0.197 182.142 182.142 0 0 1 0.211 -3.297c0.142 0.064 0.263 0.164 0.405 0.23 0.16 0.083 0.19 0.177 0.176 0.36a76.356 76.356 0 0 0 -0.16 2.038c-0.01 0.145 -0.039 0.29 -0.05 0.454m-3.882 4.468c-0.018 0.255 -0.316 0.6 -0.575 0.637a0.458 0.458 0 0 1 -0.465 -0.16 0.43 0.43 0 0 1 -0.077 -0.463 0.87 0.87 0 0 1 0.436 -0.482 0.445 0.445 0 0 1 0.474 0.033c0.156 0.12 0.238 0.255 0.207 0.435m1.856 1.21c-0.018 0.255 -0.317 0.6 -0.577 0.655 -0.186 0.042 -0.328 -0.023 -0.464 -0.16a0.4 0.4 0 0 1 -0.08 -0.445c0.09 -0.232 0.23 -0.405 0.457 -0.5 0.322 -0.16 0.688 0.104 0.664 0.45M0.883 6.432c0.164 0.091 0.292 0.2 0.456 0.31 0.055 0.037 0.037 0.091 0.019 0.146l-0.165 1.04c-0.2 1.242 -0.401 2.465 -0.602 3.707 0 0.036 -0.037 0.091 0 0.146 0.055 -0.037 0.11 -0.055 0.164 -0.091l4.108 -2.246c0.11 -0.055 0.182 -0.055 0.274 0.018 0.11 0.092 0.219 0.165 0.347 0.256 -0.037 0.055 -0.092 0.073 -0.128 0.091 -1.589 0.877 -3.177 1.735 -4.747 2.61 -0.11 0.056 -0.183 0.074 -0.274 -0.017 -0.073 -0.073 -0.164 -0.128 -0.255 -0.183 -0.073 -0.036 -0.092 -0.091 -0.073 -0.164 0.073 -0.438 0.146 -0.858 0.2 -1.296 0.22 -1.388 0.457 -2.776 0.676 -4.163a0.253 0.253 0 0 1 0 -0.164" fill="#000000" stroke-width="1"></path>
</svg>